# xmcd CD database file
# 
# Track frame offsets:
# 	150
# 	13240
# 	24622
# 	38272
# 	52355
# 	70150
# 	83217
# 	95637
# 	117235
# 	133142
# 
# Disc length: 1974 seconds
# 
# Submitted via: Nero 5.5.10.20
# 
# Revision: 0
# Processed by: cddbd v1.4PL0 Copyright (c) Steve Scherf et al.
#
DISCID=8807b40a
DTITLE=Tommy Alverson and Boot Hill - Live At Ozona Revisited
DYEAR=1900
DGENRE=
TTITLE0=I Can't Afford to Fall in Love
TTITLE1=Cuttin' a Rug 'til the Cows Come Home
TTITLE2=Movin' On
TTITLE3=Two More Like You
TTITLE4=I Think I Feel a Party Comin' On
TTITLE5=Green Snakes on the Ceiling
TTITLE6=Whiskey River
TTITLE7=I Still Can't Believe You're Gone
TTITLE8=Southwest Pilgrimage
TTITLE9=Holed Up in a Honky Tonk
EXTD=
EXTT0=
EXTT1=
EXTT2=
EXTT3=
EXTT4=
EXTT5=
EXTT6=
EXTT7=
EXTT8=
EXTT9=
PLAYORDER=
